<svg height="512" viewBox="0 0 128 128" width="512" xmlns="http://www.w3.org/2000/svg"><g><g><path d="m63.988 42.625c-.966 0-1.749-.021-1.747.945l.012 8.522a1.75 1.75 0 0 0 1.747 1.747 1.75 1.75 0 0 0 1.748-1.753l-.013-8.522c.001-.964-.782-.939-1.747-.939z" fill="#c35838"/><path d="m86.112 52.089c-12.263-8.3-22.112 0-22.112 0s-9.849-8.3-22.112 0c-19.443 13.153-7.183 44.911 6.1 50.705a11.843 11.843 0 0 0 9.31.469 18.672 18.672 0 0 1 13.4 0 11.843 11.843 0 0 0 9.31-.469c13.292-5.794 25.547-37.552 6.104-50.705z" fill="#fb374b"/><path d="m64.012 43.567s7.714.448 12.195-4.034 7.373-15.533 7.373-15.533-11.052 2.891-15.534 7.373-4.034 12.194-4.034 12.194z" fill="#70da3d"/><path d="m50.4 29.977s2.008 7.676 5.12 10.789 8.47 2.8 8.47 2.8.31-5.357-2.8-8.469-10.79-5.12-10.79-5.12z" fill="#b7e147"/></g><g fill="#1b2953"><path d="m87.092 50.64c-6.874-4.652-13.077-4.391-17.074-3.356a20.738 20.738 0 0 0 -4.272 1.637l-.008-5.076a1.831 1.831 0 0 0 .021-.379c0-.07-.357-6.974 3.524-10.856 2.7-2.7 8.207-4.836 11.672-5.985-1.147 3.464-3.282 8.968-5.985 11.671a10.83 10.83 0 0 1 -3.86 2.4 1.75 1.75 0 0 0 1.243 3.272 14.3 14.3 0 0 0 5.091-3.2c4.763-4.762 7.706-15.858 7.829-16.328a1.75 1.75 0 0 0 -2.135-2.136c-.471.123-11.567 3.065-16.329 7.829-3.584 3.584-4.37 8.826-4.523 11.619a9.23 9.23 0 0 1 -5.531-2.227c-1.484-1.484-2.8-4.435-3.672-6.865a28.419 28.419 0 0 1 5.185 2.389 1.75 1.75 0 0 0 1.847-2.973 39.5 39.5 0 0 0 -9.275-3.8 1.75 1.75 0 0 0 -2.135 2.136c.087.333 2.167 8.175 5.576 11.583 2.419 2.42 5.86 3.089 7.96 3.264l.005 3.651a20.682 20.682 0 0 0 -4.264-1.634c-3.993-1.035-10.2-1.3-17.074 3.356-7.908 5.359-11.723 14.227-10.735 24.979 1.145 12.454 8.663 25.1 17.115 28.786a13.583 13.583 0 0 0 10.642.5 16.988 16.988 0 0 1 12.139 0 12.576 12.576 0 0 0 4.573.859 15.134 15.134 0 0 0 6.07-1.358c3.555-1.55 7.017-4.7 10.015-9.1a1.75 1.75 0 1 0 -2.893-1.969c-2.589 3.8-5.615 6.6-8.522 7.865a10.223 10.223 0 0 1 -7.979.442 20.538 20.538 0 0 0 -14.666 0 10.222 10.222 0 0 1 -7.979-.442c-7.266-3.174-14.008-14.794-15.029-25.903-.5-5.458.028-15.541 9.21-21.753 10.969-7.419 19.644-.409 20-.11a1.756 1.756 0 0 0 2.249 0c.364-.3 9.043-7.313 20.009.106 3.984 2.7 12.746 10.823 8.06 28.038a1.75 1.75 0 1 0 3.377.92c3.666-13.452.124-25.361-9.472-31.852z"/><path d="m93.628 86a1.753 1.753 0 0 0 -2.3.915q-.206.478-.421.947a1.75 1.75 0 1 0 3.18 1.461c.155-.338.308-.679.456-1.023a1.751 1.751 0 0 0 -.915-2.3z"/><path d="m42.769 60.541a1.75 1.75 0 0 0 -2.43.472 18.57 18.57 0 0 0 -2.773 7.046 1.752 1.752 0 0 0 1.4 2.041 1.862 1.862 0 0 0 .322.029 1.75 1.75 0 0 0 1.718-1.43 15.086 15.086 0 0 1 2.234-5.729 1.75 1.75 0 0 0 -.471-2.429z"/><path d="m47.757 55.425a8.558 8.558 0 0 0 -1.441.505 1.75 1.75 0 0 0 1.4 3.207 6.109 6.109 0 0 1 .838-.3 1.749 1.749 0 0 0 -.8-3.407z"/></g></g></svg>